<svg width="280" height="90" viewBox="0 0 280 90" fill="none" xmlns="http://www.w3.org/2000/svg">
<rect width="280" height="90" fill="white"/>
<path d="M61.9975 72.8822C59.5149 72.8822 57.1403 71.983 55.3053 70.2845L28.105 45.1074H27.9971V63.6905C27.9971 68.3863 24.1113 72.4826 19.0382 72.7823C13.5334 73.082 9 69.0856 9 63.9902V23.9266C9 21.3289 10.0794 18.7313 12.2381 17.1327C16.2318 14.0355 21.7367 14.4352 25.1907 17.5324L68.3659 57.4961C72.1437 60.993 72.3595 66.8876 68.4738 70.2845C66.7468 72.0829 64.3721 72.8822 61.9975 72.8822Z" fill="#2156F0"/>
<path d="M61.9975 72.8822C59.5149 72.8822 57.1403 71.983 55.3053 70.2845L11.8064 30.021C8.13648 26.6241 8.13648 21.0292 11.8064 17.6323C15.4763 14.2353 21.5208 14.2353 25.1907 17.6323L68.6897 57.8958C72.3596 61.2927 72.3596 66.8876 68.6897 70.2845C66.8547 71.983 64.4801 72.8822 61.9975 72.8822Z" fill="#293990"/>
<path d="M98.8043 72.8822C96.3217 72.8822 93.9471 71.983 92.1122 70.2845L48.6131 30.021C44.9432 26.6241 44.9432 21.0292 48.6131 17.6323C52.283 14.2353 58.3276 14.2353 61.9975 17.6323L105.497 57.8958C109.166 61.2927 109.166 66.8876 105.497 70.2845C103.662 71.983 101.179 72.8822 98.8043 72.8822Z" fill="#FFB700"/>
<path d="M149.427 37.3144H144.462L143.059 33.5179H133.884L132.481 37.3144H127.624L135.611 16.7331H141.548L149.427 37.3144ZM138.418 21.5287L135.395 29.6214H141.656L138.633 21.5287H138.418Z" fill="#293990"/>
<path d="M151.37 35.516C149.859 34.1173 149.211 32.1191 149.211 29.5215C149.211 26.9238 149.967 25.0255 151.37 23.5269C152.881 22.1282 154.824 21.4288 157.415 21.4288C159.681 21.4288 161.408 21.9284 162.596 23.0274C163.891 24.0265 164.754 25.4252 165.186 27.0237H160.761C160.437 26.4243 160.005 25.9247 159.466 25.625C158.926 25.3253 158.278 25.1255 157.415 25.1255C156.227 25.1255 155.364 25.5251 154.608 26.2245C153.961 27.0237 153.529 28.1227 153.529 29.5215C153.529 30.9202 153.853 32.0192 154.608 32.8185C155.256 33.6178 156.227 33.9175 157.415 33.9175C158.278 33.9175 158.926 33.7177 159.466 33.4179C160.005 33.1182 160.437 32.6187 160.761 32.0192H165.186C164.754 33.7177 163.891 35.0165 162.596 36.0156C161.3 37.0147 159.573 37.6141 157.415 37.6141C154.824 37.6141 152.881 36.9148 151.37 35.516Z" fill="#293990"/>
<path d="M173.929 37.3144C172.202 37.3144 170.907 36.9148 170.043 36.1155C169.18 35.3162 168.748 34.2172 168.748 32.7186V25.5251H166.05V21.7285H168.748L169.396 17.6323H173.174V21.7285H177.167V25.5251H173.174V32.0192C173.174 32.4189 173.282 32.8185 173.605 33.1182C173.929 33.4179 174.253 33.5179 174.793 33.5179H177.167V37.3144H173.929Z" fill="#293990"/>
<path d="M179.974 19.1309C179.434 18.6313 179.218 18.1318 179.218 17.4324C179.218 16.7331 179.434 16.2335 179.974 15.734C180.513 15.2344 181.053 15.0346 181.809 15.0346C182.564 15.0346 183.104 15.2344 183.643 15.734C184.183 16.2335 184.399 16.7331 184.399 17.4324C184.399 18.1318 184.183 18.6313 183.643 19.1309C183.104 19.6304 182.564 19.8303 181.809 19.8303C181.053 19.8303 180.405 19.5305 179.974 19.1309ZM183.967 37.3144H179.542V21.7285H183.967V37.3144Z" fill="#293990"/>
<path d="M196.596 37.3144H190.983L185.047 21.7285H189.796L193.682 33.2181H193.79L197.675 21.7285H202.317L196.596 37.3144Z" fill="#293990"/>
<path d="M203.936 19.1309C203.396 18.6313 203.18 18.1318 203.18 17.4324C203.18 16.7331 203.396 16.2335 203.936 15.734C204.476 15.2344 205.015 15.0346 205.771 15.0346C206.526 15.0346 207.066 15.2344 207.606 15.734C208.145 16.2335 208.361 16.7331 208.361 17.4324C208.361 18.1318 208.145 18.6313 207.606 19.1309C207.066 19.6304 206.526 19.8303 205.771 19.8303C205.123 19.8303 204.476 19.5305 203.936 19.1309ZM208.038 37.3144H203.612V21.7285H208.038V37.3144Z" fill="#293990"/>
<path d="M217.752 37.3144C216.025 37.3144 214.73 36.9148 213.866 36.1155C213.003 35.3162 212.571 34.2172 212.571 32.7186V25.5251H209.872V21.7285H212.571L213.218 17.6323H216.996V21.7285H220.99V25.5251H216.996V32.0192C216.996 32.4189 217.104 32.8185 217.428 33.1182C217.752 33.4179 218.076 33.5179 218.615 33.5179H220.99V37.3144H217.752Z" fill="#293990"/>
<path d="M229.625 43.2091H224.984L227.574 37.3144L220.666 21.7285H225.523L229.841 32.219H229.949L234.159 21.7285H238.8L229.625 43.2091Z" fill="#293990"/>
<path d="M133.129 68.4862H130.43V47.8049H134.748L141.44 64.7895H141.548L148.24 47.8049H152.557V68.3863H149.859V50.9021H149.751L142.735 68.3863H140.36L133.237 50.9021H133.129V68.4862Z" fill="#1552EA"/>
<path d="M159.465 67.7868C158.278 67.1873 157.415 66.2882 156.767 65.0892C156.119 63.8903 155.796 62.4916 155.796 60.7931C155.796 59.0947 156.119 57.6959 156.767 56.497C157.415 55.2981 158.278 54.3989 159.465 53.7995C160.653 53.2 161.948 52.9003 163.459 52.9003C164.97 52.9003 166.265 53.2 167.453 53.7995C168.64 54.3989 169.504 55.2981 170.151 56.497C170.799 57.6959 171.123 59.0947 171.123 60.7931C171.123 62.4916 170.799 63.8903 170.151 65.0892C169.504 66.2882 168.64 67.1873 167.453 67.7868C166.265 68.3863 164.97 68.686 163.459 68.686C161.948 68.7859 160.653 68.4862 159.465 67.7868ZM167.237 65.1892C168.208 64.1901 168.64 62.6914 168.64 60.893C168.64 58.9948 168.208 57.596 167.237 56.5969C166.265 55.5978 164.97 55.0983 163.459 55.0983C161.84 55.0983 160.653 55.5978 159.681 56.5969C158.71 57.596 158.278 59.0947 158.278 60.893C158.278 62.7913 158.71 64.1901 159.681 65.1892C160.653 66.1883 161.948 66.6878 163.459 66.6878C165.078 66.6878 166.265 66.1883 167.237 65.1892Z" fill="#1552EA"/>
<path d="M173.929 68.4862V53.2H175.872L176.196 55.2981H176.304C176.843 54.4988 177.491 53.8994 178.355 53.4997C179.218 53.1001 180.082 52.9003 181.053 52.9003C182.24 52.9003 183.32 53.1001 184.183 53.6996C185.155 54.1991 185.91 54.8985 186.45 55.8976C186.99 56.8967 187.313 57.8958 187.313 59.1946V68.5861H184.939V59.1946C184.939 57.8958 184.507 56.8967 183.752 56.1973C182.996 55.4979 182.024 55.0983 180.729 55.0983C179.866 55.0983 179.11 55.2981 178.463 55.6978C177.815 56.0974 177.275 56.5969 176.843 57.1964C176.412 57.7959 176.304 58.4952 176.304 59.1946V68.5861H173.929V68.4862Z" fill="#1552EA"/>
<path d="M190.767 49.903C190.444 49.6033 190.228 49.2036 190.228 48.804C190.228 48.4044 190.444 48.0047 190.767 47.705C191.091 47.4053 191.523 47.2055 191.955 47.2055C192.387 47.2055 192.818 47.4053 193.142 47.705C193.466 48.0047 193.574 48.4044 193.574 48.804C193.574 49.2036 193.466 49.6033 193.142 49.903C192.818 50.2027 192.387 50.4026 191.955 50.4026C191.523 50.4026 191.199 50.2027 190.767 49.903ZM193.25 68.4862H190.875V53.2H193.25V68.4862Z" fill="#1552EA"/>
<path d="M202.101 68.4862C200.914 68.4862 199.942 68.0865 199.187 67.3872C198.431 66.6878 197.999 65.7886 197.999 64.6896V55.2981H195.409V53.2H197.999L198.323 49.1037H200.374V53.2H204.691V55.2981H200.374V64.6896C200.374 65.1892 200.59 65.5888 200.914 65.9884C201.237 66.2882 201.777 66.488 202.317 66.488H204.691V68.5861H202.101V68.4862Z" fill="#1552EA"/>
<path d="M209.765 67.7868C208.577 67.1873 207.714 66.2882 207.066 65.0892C206.418 63.8903 206.095 62.4916 206.095 60.7931C206.095 59.0947 206.418 57.6959 207.066 56.497C207.714 55.2981 208.577 54.3989 209.765 53.7995C210.952 53.2 212.247 52.9003 213.758 52.9003C215.269 52.9003 216.565 53.2 217.752 53.7995C218.939 54.3989 219.803 55.2981 220.45 56.497C221.098 57.6959 221.422 59.0947 221.422 60.7931C221.422 62.4916 221.098 63.8903 220.45 65.0892C219.803 66.2882 218.939 67.1873 217.752 67.7868C216.565 68.3863 215.269 68.686 213.758 68.686C212.247 68.7859 210.952 68.4862 209.765 67.7868ZM217.536 65.1892C218.507 64.1901 218.939 62.6914 218.939 60.893C218.939 58.9948 218.507 57.596 217.536 56.5969C216.565 55.5978 215.269 55.0983 213.758 55.0983C212.139 55.0983 210.952 55.5978 209.98 56.5969C209.009 57.596 208.577 59.0947 208.577 60.893C208.577 62.7913 209.009 64.1901 209.98 65.1892C210.952 66.1883 212.247 66.6878 213.758 66.6878C215.269 66.6878 216.565 66.1883 217.536 65.1892Z" fill="#1552EA"/>
<path d="M224.228 68.4862V53.2H226.171L226.495 55.2981H226.603C227.035 54.5988 227.682 53.9993 228.438 53.6996C229.193 53.3998 230.057 53.2 231.136 53.2H232.863V55.2981H231.136C229.841 55.2981 228.762 55.6978 228.006 56.3971C227.143 57.0965 226.711 57.9957 226.711 59.0947V68.4862H224.228Z" fill="#1552EA"/>
<path d="M234.698 49.903C234.374 49.6033 234.158 49.2036 234.158 48.804C234.158 48.4044 234.374 48.0047 234.698 47.705C235.022 47.4053 235.454 47.2055 235.885 47.2055C236.317 47.2055 236.749 47.4053 237.073 47.705C237.397 48.0047 237.504 48.4044 237.504 48.804C237.504 49.2036 237.397 49.6033 237.073 49.903C236.749 50.2027 236.317 50.4026 235.885 50.4026C235.454 50.4026 235.022 50.2027 234.698 49.903ZM237.181 68.4862H234.806V53.2H237.181V68.4862Z" fill="#1552EA"/>
<path d="M240.851 68.4862V53.2H242.794L243.117 55.2981H243.225C243.765 54.4988 244.413 53.8994 245.276 53.4997C246.14 53.1001 247.003 52.9003 247.975 52.9003C249.162 52.9003 250.241 53.1001 251.105 53.6996C252.076 54.1991 252.832 54.8985 253.371 55.8976C253.911 56.8967 254.235 57.8958 254.235 59.1946V68.5861H251.86V59.1946C251.86 57.8958 251.429 56.8967 250.673 56.1973C249.917 55.4979 248.946 55.0983 247.651 55.0983C246.787 55.0983 246.032 55.2981 245.384 55.6978C244.736 56.0974 244.197 56.5969 243.765 57.1964C243.333 57.7959 243.225 58.4952 243.225 59.1946V68.5861H240.851V68.4862Z" fill="#1552EA"/>
<path d="M259.956 73.1819C258.66 72.3826 257.689 71.2836 257.257 69.785H259.848C260.711 71.4835 262.222 72.2827 264.597 72.2827C266.108 72.2827 267.295 71.983 268.159 71.2836C269.022 70.5843 269.562 69.5852 269.562 68.1864V65.4889H269.454C268.267 66.8876 266.54 67.587 264.165 67.587C262.762 67.587 261.575 67.2873 260.495 66.6878C259.416 66.0883 258.552 65.2891 257.905 64.1901C257.257 63.0911 256.933 61.7922 256.933 60.1937C256.933 58.695 257.257 57.2963 257.905 56.1973C258.552 55.0983 259.416 54.1991 260.495 53.6996C261.575 53.1001 262.762 52.8004 264.165 52.8004C265.353 52.8004 266.432 53.0002 267.295 53.3998C268.267 53.7995 269.022 54.299 269.562 54.9984H269.67L269.994 53.1001H271.937V68.0865C271.937 69.9848 271.289 71.5834 269.886 72.6824C268.483 73.7814 266.756 74.2809 264.597 74.2809C262.762 74.3808 261.251 73.9812 259.956 73.1819ZM268.051 64.0901C269.022 63.191 269.454 61.8921 269.454 60.1937C269.454 58.4952 269.022 57.1964 268.051 56.2972C267.08 55.398 265.892 54.8985 264.381 54.8985C262.87 54.8985 261.575 55.398 260.711 56.2972C259.74 57.1964 259.308 58.4952 259.308 60.1937C259.308 61.8921 259.74 63.191 260.711 64.0901C261.683 64.9893 262.87 65.4889 264.381 65.4889C265.892 65.4889 267.08 65.0892 268.051 64.0901Z" fill="#1552EA"/>
</svg>
